<mxfile host="app.diagrams.net" modified="2021-01-30T16:09:19.410Z" agent="5.0 (Windows)" etag="4fjuvndcZ4wPReBMK_kU" version="14.1.8" type="github" pages="3">
  <diagram id="w3o611-m6IItsd9GuGvY" name="erd">
    <mxGraphModel dx="1422" dy="801" grid="1" gridSize="10" guides="1" tooltips="1" connect="1" arrows="1" fold="1" page="1" pageScale="1" pageWidth="1100" pageHeight="850" math="0" shadow="0">
      <root>
        <mxCell id="0" />
        <mxCell id="1" parent="0" />
        <mxCell id="FgOhWPreDcGsdZi0qV6i-9" style="edgeStyle=orthogonalEdgeStyle;rounded=0;orthogonalLoop=1;jettySize=auto;html=1;exitX=0;exitY=0.5;exitDx=0;exitDy=0;endArrow=none;endFill=0;" edge="1" parent="1" source="FgOhWPreDcGsdZi0qV6i-2" target="FgOhWPreDcGsdZi0qV6i-6">
          <mxGeometry relative="1" as="geometry" />
        </mxCell>
        <mxCell id="FgOhWPreDcGsdZi0qV6i-11" style="edgeStyle=orthogonalEdgeStyle;rounded=0;orthogonalLoop=1;jettySize=auto;html=1;exitX=1;exitY=0.5;exitDx=0;exitDy=0;entryX=0;entryY=0.5;entryDx=0;entryDy=0;endArrow=none;endFill=0;" edge="1" parent="1" source="FgOhWPreDcGsdZi0qV6i-2" target="FgOhWPreDcGsdZi0qV6i-7">
          <mxGeometry relative="1" as="geometry" />
        </mxCell>
        <mxCell id="FgOhWPreDcGsdZi0qV6i-2" value="Employee" style="rounded=0;whiteSpace=wrap;html=1;" vertex="1" parent="1">
          <mxGeometry x="470" y="360" width="120" height="60" as="geometry" />
        </mxCell>
        <mxCell id="FgOhWPreDcGsdZi0qV6i-3" value="Absensi" style="rounded=0;whiteSpace=wrap;html=1;" vertex="1" parent="1">
          <mxGeometry x="150" y="360" width="120" height="60" as="geometry" />
        </mxCell>
        <mxCell id="FgOhWPreDcGsdZi0qV6i-4" value="Over Time" style="rounded=0;whiteSpace=wrap;html=1;" vertex="1" parent="1">
          <mxGeometry x="790" y="360" width="120" height="60" as="geometry" />
        </mxCell>
        <mxCell id="FgOhWPreDcGsdZi0qV6i-10" style="edgeStyle=orthogonalEdgeStyle;rounded=0;orthogonalLoop=1;jettySize=auto;html=1;exitX=0;exitY=0.5;exitDx=0;exitDy=0;entryX=1;entryY=0.5;entryDx=0;entryDy=0;endArrow=none;endFill=0;" edge="1" parent="1" source="FgOhWPreDcGsdZi0qV6i-6" target="FgOhWPreDcGsdZi0qV6i-3">
          <mxGeometry relative="1" as="geometry" />
        </mxCell>
        <mxCell id="FgOhWPreDcGsdZi0qV6i-6" value="Dapat" style="rhombus;whiteSpace=wrap;html=1;" vertex="1" parent="1">
          <mxGeometry x="320" y="350" width="80" height="80" as="geometry" />
        </mxCell>
        <mxCell id="FgOhWPreDcGsdZi0qV6i-12" style="edgeStyle=orthogonalEdgeStyle;rounded=0;orthogonalLoop=1;jettySize=auto;html=1;exitX=1;exitY=0.5;exitDx=0;exitDy=0;entryX=0;entryY=0.5;entryDx=0;entryDy=0;endArrow=none;endFill=0;" edge="1" parent="1" source="FgOhWPreDcGsdZi0qV6i-7" target="FgOhWPreDcGsdZi0qV6i-4">
          <mxGeometry relative="1" as="geometry" />
        </mxCell>
        <mxCell id="FgOhWPreDcGsdZi0qV6i-7" value="Dapat" style="rhombus;whiteSpace=wrap;html=1;" vertex="1" parent="1">
          <mxGeometry x="650" y="350" width="80" height="80" as="geometry" />
        </mxCell>
        <mxCell id="FgOhWPreDcGsdZi0qV6i-21" style="edgeStyle=orthogonalEdgeStyle;rounded=0;orthogonalLoop=1;jettySize=auto;html=1;exitX=0;exitY=0.5;exitDx=0;exitDy=0;entryX=1;entryY=0.5;entryDx=0;entryDy=0;endArrow=none;endFill=0;" edge="1" parent="1" source="FgOhWPreDcGsdZi0qV6i-13" target="FgOhWPreDcGsdZi0qV6i-14">
          <mxGeometry relative="1" as="geometry" />
        </mxCell>
        <mxCell id="FgOhWPreDcGsdZi0qV6i-64" style="edgeStyle=none;rounded=0;orthogonalLoop=1;jettySize=auto;html=1;exitX=1;exitY=0.5;exitDx=0;exitDy=0;endArrow=none;endFill=0;strokeColor=#000000;" edge="1" parent="1" source="FgOhWPreDcGsdZi0qV6i-13">
          <mxGeometry relative="1" as="geometry">
            <mxPoint x="470" y="390" as="targetPoint" />
          </mxGeometry>
        </mxCell>
        <mxCell id="FgOhWPreDcGsdZi0qV6i-13" value="Dapat" style="rhombus;whiteSpace=wrap;html=1;" vertex="1" parent="1">
          <mxGeometry x="320" y="550" width="80" height="80" as="geometry" />
        </mxCell>
        <mxCell id="FgOhWPreDcGsdZi0qV6i-14" value="Cuti" style="rounded=0;whiteSpace=wrap;html=1;" vertex="1" parent="1">
          <mxGeometry x="150" y="560" width="120" height="60" as="geometry" />
        </mxCell>
        <mxCell id="FgOhWPreDcGsdZi0qV6i-20" style="edgeStyle=orthogonalEdgeStyle;rounded=0;orthogonalLoop=1;jettySize=auto;html=1;exitX=1;exitY=0.5;exitDx=0;exitDy=0;entryX=0;entryY=0.5;entryDx=0;entryDy=0;endArrow=none;endFill=0;" edge="1" parent="1" source="FgOhWPreDcGsdZi0qV6i-15" target="FgOhWPreDcGsdZi0qV6i-16">
          <mxGeometry relative="1" as="geometry" />
        </mxCell>
        <mxCell id="FgOhWPreDcGsdZi0qV6i-63" style="edgeStyle=none;rounded=0;orthogonalLoop=1;jettySize=auto;html=1;exitX=0;exitY=0.5;exitDx=0;exitDy=0;entryX=1;entryY=0.5;entryDx=0;entryDy=0;endArrow=none;endFill=0;strokeColor=#000000;" edge="1" parent="1" source="FgOhWPreDcGsdZi0qV6i-15" target="FgOhWPreDcGsdZi0qV6i-2">
          <mxGeometry relative="1" as="geometry" />
        </mxCell>
        <mxCell id="FgOhWPreDcGsdZi0qV6i-15" value="Dapat" style="rhombus;whiteSpace=wrap;html=1;" vertex="1" parent="1">
          <mxGeometry x="650" y="520" width="80" height="80" as="geometry" />
        </mxCell>
        <mxCell id="FgOhWPreDcGsdZi0qV6i-16" value="Ijin Sakit" style="rounded=0;whiteSpace=wrap;html=1;" vertex="1" parent="1">
          <mxGeometry x="790" y="530" width="120" height="60" as="geometry" />
        </mxCell>
        <mxCell id="FgOhWPreDcGsdZi0qV6i-29" style="rounded=0;orthogonalLoop=1;jettySize=auto;html=1;exitX=1;exitY=0.5;exitDx=0;exitDy=0;entryX=0.5;entryY=0;entryDx=0;entryDy=0;endArrow=none;endFill=0;" edge="1" parent="1" source="FgOhWPreDcGsdZi0qV6i-22" target="FgOhWPreDcGsdZi0qV6i-2">
          <mxGeometry relative="1" as="geometry" />
        </mxCell>
        <mxCell id="FgOhWPreDcGsdZi0qV6i-22" value="Mempunyai" style="rhombus;whiteSpace=wrap;html=1;" vertex="1" parent="1">
          <mxGeometry x="310" y="200" width="80" height="80" as="geometry" />
        </mxCell>
        <mxCell id="FgOhWPreDcGsdZi0qV6i-27" style="rounded=0;orthogonalLoop=1;jettySize=auto;html=1;exitX=0;exitY=0.5;exitDx=0;exitDy=0;entryX=0.5;entryY=0;entryDx=0;entryDy=0;endArrow=none;endFill=0;" edge="1" parent="1" source="FgOhWPreDcGsdZi0qV6i-23" target="FgOhWPreDcGsdZi0qV6i-2">
          <mxGeometry relative="1" as="geometry" />
        </mxCell>
        <mxCell id="FgOhWPreDcGsdZi0qV6i-23" value="Mempunyai" style="rhombus;whiteSpace=wrap;html=1;" vertex="1" parent="1">
          <mxGeometry x="650" y="200" width="80" height="80" as="geometry" />
        </mxCell>
        <mxCell id="FgOhWPreDcGsdZi0qV6i-26" style="edgeStyle=orthogonalEdgeStyle;rounded=0;orthogonalLoop=1;jettySize=auto;html=1;exitX=0;exitY=0.5;exitDx=0;exitDy=0;entryX=1;entryY=0.5;entryDx=0;entryDy=0;endArrow=none;endFill=0;" edge="1" parent="1" source="FgOhWPreDcGsdZi0qV6i-24" target="FgOhWPreDcGsdZi0qV6i-23">
          <mxGeometry relative="1" as="geometry" />
        </mxCell>
        <mxCell id="FgOhWPreDcGsdZi0qV6i-24" value="Client" style="rounded=0;whiteSpace=wrap;html=1;" vertex="1" parent="1">
          <mxGeometry x="790" y="210" width="120" height="60" as="geometry" />
        </mxCell>
        <mxCell id="FgOhWPreDcGsdZi0qV6i-28" style="edgeStyle=orthogonalEdgeStyle;rounded=0;orthogonalLoop=1;jettySize=auto;html=1;exitX=1;exitY=0.5;exitDx=0;exitDy=0;entryX=0;entryY=0.5;entryDx=0;entryDy=0;endArrow=none;endFill=0;" edge="1" parent="1" source="FgOhWPreDcGsdZi0qV6i-25" target="FgOhWPreDcGsdZi0qV6i-22">
          <mxGeometry relative="1" as="geometry" />
        </mxCell>
        <mxCell id="FgOhWPreDcGsdZi0qV6i-25" value="Position" style="rounded=0;whiteSpace=wrap;html=1;" vertex="1" parent="1">
          <mxGeometry x="150" y="210" width="120" height="60" as="geometry" />
        </mxCell>
        <mxCell id="FgOhWPreDcGsdZi0qV6i-33" value="&lt;br&gt;&lt;table width=&quot;124&quot; cellspacing=&quot;0&quot; cellpadding=&quot;0&quot; border=&quot;0&quot;&gt;&lt;tbody&gt;&lt;tr style=&quot;height: 15.0pt&quot;&gt;&lt;td style=&quot;height: 15.0pt ; width: 93pt&quot; width=&quot;124&quot; height=&quot;20&quot;&gt;*nik&lt;/td&gt; &lt;/tr&gt; &lt;tr style=&quot;height: 15.0pt&quot;&gt;  &lt;td style=&quot;height: 15.0pt&quot; height=&quot;20&quot;&gt;name&lt;/td&gt; &lt;/tr&gt; &lt;tr style=&quot;height: 15.0pt&quot;&gt;  &lt;td style=&quot;height: 15.0pt&quot; height=&quot;20&quot;&gt;**id_client&lt;/td&gt; &lt;/tr&gt; &lt;tr style=&quot;height: 15.0pt&quot;&gt;  &lt;td style=&quot;height: 15.0pt&quot; height=&quot;20&quot;&gt;**position&lt;/td&gt; &lt;/tr&gt; &lt;tr style=&quot;height: 15.0pt&quot;&gt;  &lt;td style=&quot;height: 15.0pt&quot; height=&quot;20&quot;&gt;birth_date&lt;/td&gt; &lt;/tr&gt; &lt;tr style=&quot;height: 15.0pt&quot;&gt;  &lt;td style=&quot;height: 15.0pt&quot; height=&quot;20&quot;&gt;birth_place&lt;/td&gt; &lt;/tr&gt; &lt;tr style=&quot;height: 15.0pt&quot;&gt;  &lt;td style=&quot;height: 15.0pt&quot; height=&quot;20&quot;&gt;gender&lt;/td&gt; &lt;/tr&gt; &lt;tr style=&quot;height: 15.0pt&quot;&gt;  &lt;td style=&quot;height: 15.0pt&quot; height=&quot;20&quot;&gt;blood_type&lt;/td&gt; &lt;/tr&gt; &lt;tr style=&quot;height: 15.0pt&quot;&gt;  &lt;td style=&quot;height: 15.0pt&quot; height=&quot;20&quot;&gt;marital_status&lt;/td&gt; &lt;/tr&gt; &lt;tr style=&quot;height: 15.0pt&quot;&gt;  &lt;td style=&quot;height: 15.0pt&quot; height=&quot;20&quot;&gt;religion&lt;/td&gt; &lt;/tr&gt; &lt;tr style=&quot;height: 15.0pt&quot;&gt;  &lt;td style=&quot;height: 15.0pt&quot; height=&quot;20&quot;&gt;cityzenship&lt;/td&gt; &lt;/tr&gt; &lt;tr style=&quot;height: 15.0pt&quot;&gt;  &lt;td style=&quot;height: 15.0pt&quot; height=&quot;20&quot;&gt;phone&lt;/td&gt; &lt;/tr&gt; &lt;tr style=&quot;height: 15.0pt&quot;&gt;  &lt;td style=&quot;height: 15.0pt&quot; height=&quot;20&quot;&gt;email&lt;/td&gt; &lt;/tr&gt; &lt;tr style=&quot;height: 15.0pt&quot;&gt;  &lt;td style=&quot;height: 15.0pt&quot; height=&quot;20&quot;&gt;id_type&lt;/td&gt; &lt;/tr&gt; &lt;tr style=&quot;height: 15.0pt&quot;&gt;  &lt;td style=&quot;height: 15.0pt&quot; height=&quot;20&quot;&gt;id_number&lt;/td&gt; &lt;/tr&gt; &lt;tr style=&quot;height: 15.0pt&quot;&gt;  &lt;td style=&quot;height: 15.0pt&quot; height=&quot;20&quot;&gt;card_expired&lt;/td&gt; &lt;/tr&gt; &lt;tr style=&quot;height: 15.0pt&quot;&gt;  &lt;td style=&quot;height: 15.0pt&quot; height=&quot;20&quot;&gt;street&lt;/td&gt; &lt;/tr&gt; &lt;tr style=&quot;height: 15.0pt&quot;&gt;  &lt;td style=&quot;height: 15.0pt&quot; height=&quot;20&quot;&gt;city&lt;/td&gt; &lt;/tr&gt; &lt;tr style=&quot;height: 15.0pt&quot;&gt;  &lt;td style=&quot;height: 15.0pt&quot; height=&quot;20&quot;&gt;country&lt;/td&gt; &lt;/tr&gt; &lt;tr style=&quot;height: 15.0pt&quot;&gt;  &lt;td style=&quot;height: 15.0pt&quot; height=&quot;20&quot;&gt;state&lt;/td&gt; &lt;/tr&gt; &lt;tr style=&quot;height: 15.0pt&quot;&gt;  &lt;td style=&quot;height: 15.0pt&quot; height=&quot;20&quot;&gt;original_street&lt;/td&gt; &lt;/tr&gt; &lt;tr style=&quot;height: 15.0pt&quot;&gt;  &lt;td style=&quot;height: 15.0pt&quot; height=&quot;20&quot;&gt;original_city&lt;/td&gt; &lt;/tr&gt; &lt;tr style=&quot;height: 15.0pt&quot;&gt;  &lt;td style=&quot;height: 15.0pt&quot; height=&quot;20&quot;&gt;npwp&lt;/td&gt; &lt;/tr&gt; &lt;tr style=&quot;height: 15.0pt&quot;&gt;  &lt;td style=&quot;height: 15.0pt&quot; height=&quot;20&quot;&gt;ptkp_code&lt;/td&gt; &lt;/tr&gt; &lt;tr style=&quot;height: 15.0pt&quot;&gt;  &lt;td style=&quot;height: 15.0pt&quot; height=&quot;20&quot;&gt;ptkp_name&lt;/td&gt; &lt;/tr&gt; &lt;tr style=&quot;height: 15.0pt&quot;&gt;  &lt;td style=&quot;height: 15.0pt&quot; height=&quot;20&quot;&gt;education_level&lt;/td&gt; &lt;/tr&gt; &lt;tr style=&quot;height: 15.0pt&quot;&gt;  &lt;td style=&quot;height: 15.0pt&quot; height=&quot;20&quot;&gt;education_major&lt;/td&gt; &lt;/tr&gt; &lt;tr style=&quot;height: 15.0pt&quot;&gt;  &lt;td style=&quot;height: 15.0pt&quot; height=&quot;20&quot;&gt;institution_name&lt;/td&gt; &lt;/tr&gt; &lt;tr style=&quot;height: 15.0pt&quot;&gt;  &lt;td style=&quot;height: 15.0pt&quot; height=&quot;20&quot;&gt;graduation_year&lt;/td&gt; &lt;/tr&gt; &lt;tr style=&quot;height: 15.0pt&quot;&gt;  &lt;td style=&quot;height: 15.0pt&quot; height=&quot;20&quot;&gt;billing_rate&lt;/td&gt; &lt;/tr&gt;&lt;/tbody&gt;&lt;/table&gt;" style="text;html=1;strokeColor=none;fillColor=none;align=left;verticalAlign=middle;whiteSpace=wrap;rounded=0;" vertex="1" parent="1">
          <mxGeometry x="480" y="430" width="100" height="570" as="geometry" />
        </mxCell>
        <mxCell id="FgOhWPreDcGsdZi0qV6i-35" value="&lt;table width=&quot;64&quot; cellspacing=&quot;0&quot; cellpadding=&quot;0&quot; border=&quot;0&quot;&gt;&lt;tbody&gt;&lt;tr style=&quot;height: 15.0pt&quot;&gt;&lt;td style=&quot;height: 15.0pt ; width: 48pt&quot; width=&quot;64&quot; height=&quot;20&quot;&gt;*id&lt;/td&gt; &lt;/tr&gt; &lt;tr style=&quot;height: 15.0pt&quot;&gt;  &lt;td style=&quot;height: 15.0pt&quot; height=&quot;20&quot;&gt;name&lt;/td&gt; &lt;/tr&gt;&lt;/tbody&gt;&lt;/table&gt;" style="text;html=1;strokeColor=none;fillColor=none;align=left;verticalAlign=middle;whiteSpace=wrap;rounded=0;" vertex="1" parent="1">
          <mxGeometry x="276" y="241" width="40" height="50" as="geometry" />
        </mxCell>
        <mxCell id="FgOhWPreDcGsdZi0qV6i-36" value="*id&lt;br&gt;name&lt;br&gt;address&lt;br&gt;phone&lt;br&gt;npwp" style="text;html=1;strokeColor=none;fillColor=none;align=left;verticalAlign=middle;whiteSpace=wrap;rounded=0;" vertex="1" parent="1">
          <mxGeometry x="920" y="241" width="40" height="70" as="geometry" />
        </mxCell>
        <mxCell id="FgOhWPreDcGsdZi0qV6i-37" value="*nik&lt;br&gt;**date&lt;br&gt;clock_in&lt;br&gt;clock_out&lt;br&gt;activity&lt;br&gt;remarks" style="text;html=1;strokeColor=none;fillColor=none;align=left;verticalAlign=middle;whiteSpace=wrap;rounded=0;" vertex="1" parent="1">
          <mxGeometry x="270" y="392" width="60" height="100" as="geometry" />
        </mxCell>
        <mxCell id="FgOhWPreDcGsdZi0qV6i-38" value="*id&lt;br&gt;**nik&lt;br&gt;name&lt;br&gt;**date&lt;br&gt;clock_in&lt;br&gt;clock_out&lt;br&gt;total_hour&lt;br&gt;convertion_hour&lt;br&gt;status&lt;br&gt;activity" style="text;html=1;strokeColor=none;fillColor=none;align=left;verticalAlign=middle;whiteSpace=wrap;rounded=0;" vertex="1" parent="1">
          <mxGeometry x="920" y="380" width="90" height="160" as="geometry" />
        </mxCell>
        <mxCell id="FgOhWPreDcGsdZi0qV6i-39" value="*id&lt;br&gt;**nik&lt;br&gt;**date&lt;br&gt;activity&lt;br&gt;remarks&lt;br&gt;status&lt;br&gt;adddate" style="text;html=1;strokeColor=none;fillColor=none;align=left;verticalAlign=middle;whiteSpace=wrap;rounded=0;" vertex="1" parent="1">
          <mxGeometry x="275" y="600" width="40" height="100" as="geometry" />
        </mxCell>
        <mxCell id="FgOhWPreDcGsdZi0qV6i-40" value="*id&lt;br&gt;**nik&lt;br&gt;**date&lt;br&gt;activity&lt;br&gt;remarks&lt;br&gt;status&lt;br&gt;adddate" style="text;html=1;strokeColor=none;fillColor=none;align=left;verticalAlign=middle;whiteSpace=wrap;rounded=0;" vertex="1" parent="1">
          <mxGeometry x="920" y="560" width="60" height="110" as="geometry" />
        </mxCell>
        <mxCell id="FgOhWPreDcGsdZi0qV6i-46" style="edgeStyle=none;rounded=0;orthogonalLoop=1;jettySize=auto;html=1;exitX=0.5;exitY=1;exitDx=0;exitDy=0;endArrow=none;endFill=0;strokeColor=#000000;" edge="1" parent="1" source="FgOhWPreDcGsdZi0qV6i-44">
          <mxGeometry relative="1" as="geometry">
            <mxPoint x="530" y="360" as="targetPoint" />
          </mxGeometry>
        </mxCell>
        <mxCell id="FgOhWPreDcGsdZi0qV6i-47" style="edgeStyle=none;rounded=0;orthogonalLoop=1;jettySize=auto;html=1;exitX=0.5;exitY=0;exitDx=0;exitDy=0;entryX=0.5;entryY=1;entryDx=0;entryDy=0;endArrow=none;endFill=0;strokeColor=#000000;" edge="1" parent="1" source="FgOhWPreDcGsdZi0qV6i-44" target="FgOhWPreDcGsdZi0qV6i-45">
          <mxGeometry relative="1" as="geometry" />
        </mxCell>
        <mxCell id="FgOhWPreDcGsdZi0qV6i-44" value="Mempunyai" style="rhombus;whiteSpace=wrap;html=1;" vertex="1" parent="1">
          <mxGeometry x="490" y="170" width="80" height="80" as="geometry" />
        </mxCell>
        <mxCell id="FgOhWPreDcGsdZi0qV6i-45" value="Employe Status" style="rounded=0;whiteSpace=wrap;html=1;" vertex="1" parent="1">
          <mxGeometry x="470" y="50" width="120" height="60" as="geometry" />
        </mxCell>
        <mxCell id="FgOhWPreDcGsdZi0qV6i-48" value="*nik&lt;br&gt;join_date&lt;br&gt;end_date&lt;br&gt;inactive_date&lt;br&gt;inactive_reason&lt;br&gt;contract_of_period&lt;br&gt;cuti&lt;br&gt;status&lt;br&gt;upddate" style="text;html=1;strokeColor=none;fillColor=none;align=left;verticalAlign=middle;whiteSpace=wrap;rounded=0;" vertex="1" parent="1">
          <mxGeometry x="600" y="60" width="40" height="130" as="geometry" />
        </mxCell>
        <mxCell id="FgOhWPreDcGsdZi0qV6i-49" value="1" style="text;html=1;strokeColor=none;fillColor=none;align=center;verticalAlign=middle;whiteSpace=wrap;rounded=0;" vertex="1" parent="1">
          <mxGeometry x="530" y="110" width="20" height="20" as="geometry" />
        </mxCell>
        <mxCell id="FgOhWPreDcGsdZi0qV6i-50" value="M" style="text;html=1;strokeColor=none;fillColor=none;align=center;verticalAlign=middle;whiteSpace=wrap;rounded=0;" vertex="1" parent="1">
          <mxGeometry x="770" y="372" width="20" height="20" as="geometry" />
        </mxCell>
        <mxCell id="FgOhWPreDcGsdZi0qV6i-51" value="M" style="text;html=1;strokeColor=none;fillColor=none;align=center;verticalAlign=middle;whiteSpace=wrap;rounded=0;" vertex="1" parent="1">
          <mxGeometry x="770" y="540" width="20" height="20" as="geometry" />
        </mxCell>
        <mxCell id="FgOhWPreDcGsdZi0qV6i-52" value="M" style="text;html=1;strokeColor=none;fillColor=none;align=center;verticalAlign=middle;whiteSpace=wrap;rounded=0;" vertex="1" parent="1">
          <mxGeometry x="270" y="570" width="20" height="20" as="geometry" />
        </mxCell>
        <mxCell id="FgOhWPreDcGsdZi0qV6i-53" value="M" style="text;html=1;strokeColor=none;fillColor=none;align=center;verticalAlign=middle;whiteSpace=wrap;rounded=0;" vertex="1" parent="1">
          <mxGeometry x="270" y="370" width="20" height="20" as="geometry" />
        </mxCell>
        <mxCell id="FgOhWPreDcGsdZi0qV6i-54" value="1" style="text;html=1;strokeColor=none;fillColor=none;align=center;verticalAlign=middle;whiteSpace=wrap;rounded=0;" vertex="1" parent="1">
          <mxGeometry x="270" y="221" width="20" height="20" as="geometry" />
        </mxCell>
        <mxCell id="FgOhWPreDcGsdZi0qV6i-55" value="1" style="text;html=1;strokeColor=none;fillColor=none;align=center;verticalAlign=middle;whiteSpace=wrap;rounded=0;" vertex="1" parent="1">
          <mxGeometry x="770" y="221" width="20" height="20" as="geometry" />
        </mxCell>
        <mxCell id="FgOhWPreDcGsdZi0qV6i-56" value="1" style="text;html=1;strokeColor=none;fillColor=none;align=center;verticalAlign=middle;whiteSpace=wrap;rounded=0;" vertex="1" parent="1">
          <mxGeometry x="600" y="400" width="20" height="20" as="geometry" />
        </mxCell>
        <mxCell id="FgOhWPreDcGsdZi0qV6i-57" value="1" style="text;html=1;strokeColor=none;fillColor=none;align=center;verticalAlign=middle;whiteSpace=wrap;rounded=0;" vertex="1" parent="1">
          <mxGeometry x="591" y="360" width="20" height="20" as="geometry" />
        </mxCell>
        <mxCell id="FgOhWPreDcGsdZi0qV6i-58" value="1" style="text;html=1;strokeColor=none;fillColor=none;align=center;verticalAlign=middle;whiteSpace=wrap;rounded=0;" vertex="1" parent="1">
          <mxGeometry x="560" y="330" width="20" height="20" as="geometry" />
        </mxCell>
        <mxCell id="FgOhWPreDcGsdZi0qV6i-59" value="1" style="text;html=1;strokeColor=none;fillColor=none;align=center;verticalAlign=middle;whiteSpace=wrap;rounded=0;" vertex="1" parent="1">
          <mxGeometry x="530" y="311" width="20" height="20" as="geometry" />
        </mxCell>
        <mxCell id="FgOhWPreDcGsdZi0qV6i-60" value="1" style="text;html=1;strokeColor=none;fillColor=none;align=center;verticalAlign=middle;whiteSpace=wrap;rounded=0;" vertex="1" parent="1">
          <mxGeometry x="470" y="331" width="20" height="20" as="geometry" />
        </mxCell>
        <mxCell id="FgOhWPreDcGsdZi0qV6i-61" value="1" style="text;html=1;strokeColor=none;fillColor=none;align=center;verticalAlign=middle;whiteSpace=wrap;rounded=0;" vertex="1" parent="1">
          <mxGeometry x="440" y="360" width="20" height="20" as="geometry" />
        </mxCell>
        <mxCell id="FgOhWPreDcGsdZi0qV6i-62" value="1" style="text;html=1;strokeColor=none;fillColor=none;align=center;verticalAlign=middle;whiteSpace=wrap;rounded=0;" vertex="1" parent="1">
          <mxGeometry x="440" y="400" width="20" height="20" as="geometry" />
        </mxCell>
      </root>
    </mxGraphModel>
  </diagram>
  <diagram id="uxzdlCek4ODaHwb-eNjM" name="LRS">
    <mxGraphModel dx="1422" dy="801" grid="1" gridSize="10" guides="1" tooltips="1" connect="1" arrows="1" fold="1" page="1" pageScale="1" pageWidth="1100" pageHeight="850" math="0" shadow="0">
      <root>
        <mxCell id="4Zz9K3KWUpmg_ewer66d-0" />
        <mxCell id="4Zz9K3KWUpmg_ewer66d-1" parent="4Zz9K3KWUpmg_ewer66d-0" />
        <mxCell id="8jH9FmRQBXBpsS2VpEno-63" value="" style="rounded=0;whiteSpace=wrap;html=1;align=left;dashed=1;sketch=0;fillColor=none;strokeWidth=3;strokeColor=#0000FF;" vertex="1" parent="4Zz9K3KWUpmg_ewer66d-1">
          <mxGeometry x="447.5" y="40" width="172.5" height="110" as="geometry" />
        </mxCell>
        <mxCell id="8jH9FmRQBXBpsS2VpEno-53" value="" style="rounded=0;whiteSpace=wrap;html=1;align=left;dashed=1;sketch=0;fillColor=none;strokeWidth=3;strokeColor=#0000FF;" vertex="1" parent="4Zz9K3KWUpmg_ewer66d-1">
          <mxGeometry x="630" y="480" width="330" height="125" as="geometry" />
        </mxCell>
        <mxCell id="8jH9FmRQBXBpsS2VpEno-55" value="" style="rounded=0;whiteSpace=wrap;html=1;align=left;dashed=1;sketch=0;fillColor=none;strokeWidth=3;strokeColor=#0000FF;" vertex="1" parent="4Zz9K3KWUpmg_ewer66d-1">
          <mxGeometry x="630" y="322.5" width="330" height="125" as="geometry" />
        </mxCell>
        <mxCell id="8jH9FmRQBXBpsS2VpEno-56" value="" style="rounded=0;whiteSpace=wrap;html=1;align=left;dashed=1;sketch=0;fillColor=none;strokeWidth=3;strokeColor=#0000FF;" vertex="1" parent="4Zz9K3KWUpmg_ewer66d-1">
          <mxGeometry x="630" y="179" width="330" height="125" as="geometry" />
        </mxCell>
        <mxCell id="8jH9FmRQBXBpsS2VpEno-60" value="" style="rounded=0;whiteSpace=wrap;html=1;align=left;dashed=1;sketch=0;fillColor=none;strokeWidth=3;strokeColor=#0000FF;" vertex="1" parent="4Zz9K3KWUpmg_ewer66d-1">
          <mxGeometry x="447.5" y="160" width="172.5" height="360" as="geometry" />
        </mxCell>
        <mxCell id="8jH9FmRQBXBpsS2VpEno-59" value="" style="rounded=0;whiteSpace=wrap;html=1;align=left;dashed=1;sketch=0;fillColor=none;strokeWidth=3;strokeColor=#0000FF;" vertex="1" parent="4Zz9K3KWUpmg_ewer66d-1">
          <mxGeometry x="110" y="480" width="330" height="125" as="geometry" />
        </mxCell>
        <mxCell id="8jH9FmRQBXBpsS2VpEno-58" value="" style="rounded=0;whiteSpace=wrap;html=1;align=left;dashed=1;sketch=0;fillColor=none;strokeWidth=3;strokeColor=#0000FF;" vertex="1" parent="4Zz9K3KWUpmg_ewer66d-1">
          <mxGeometry x="110" y="317.5" width="330" height="125" as="geometry" />
        </mxCell>
        <mxCell id="8jH9FmRQBXBpsS2VpEno-57" value="" style="rounded=0;whiteSpace=wrap;html=1;align=left;dashed=1;sketch=0;fillColor=none;strokeWidth=3;strokeColor=#0000FF;" vertex="1" parent="4Zz9K3KWUpmg_ewer66d-1">
          <mxGeometry x="110" y="177.5" width="330" height="125" as="geometry" />
        </mxCell>
        <mxCell id="8jH9FmRQBXBpsS2VpEno-0" style="edgeStyle=orthogonalEdgeStyle;rounded=0;orthogonalLoop=1;jettySize=auto;html=1;exitX=0;exitY=0.5;exitDx=0;exitDy=0;endArrow=none;endFill=0;" edge="1" parent="4Zz9K3KWUpmg_ewer66d-1" source="8jH9FmRQBXBpsS2VpEno-2" target="8jH9FmRQBXBpsS2VpEno-6">
          <mxGeometry relative="1" as="geometry" />
        </mxCell>
        <mxCell id="8jH9FmRQBXBpsS2VpEno-1" style="edgeStyle=orthogonalEdgeStyle;rounded=0;orthogonalLoop=1;jettySize=auto;html=1;exitX=1;exitY=0.5;exitDx=0;exitDy=0;entryX=0;entryY=0.5;entryDx=0;entryDy=0;endArrow=none;endFill=0;" edge="1" parent="4Zz9K3KWUpmg_ewer66d-1" source="8jH9FmRQBXBpsS2VpEno-2" target="8jH9FmRQBXBpsS2VpEno-8">
          <mxGeometry relative="1" as="geometry" />
        </mxCell>
        <mxCell id="8jH9FmRQBXBpsS2VpEno-2" value="Employee" style="rounded=0;whiteSpace=wrap;html=1;" vertex="1" parent="4Zz9K3KWUpmg_ewer66d-1">
          <mxGeometry x="470" y="360" width="120" height="60" as="geometry" />
        </mxCell>
        <mxCell id="8jH9FmRQBXBpsS2VpEno-3" value="Absensi" style="rounded=0;whiteSpace=wrap;html=1;" vertex="1" parent="4Zz9K3KWUpmg_ewer66d-1">
          <mxGeometry x="150" y="360" width="120" height="60" as="geometry" />
        </mxCell>
        <mxCell id="8jH9FmRQBXBpsS2VpEno-4" value="Over Time" style="rounded=0;whiteSpace=wrap;html=1;" vertex="1" parent="4Zz9K3KWUpmg_ewer66d-1">
          <mxGeometry x="790" y="360" width="120" height="60" as="geometry" />
        </mxCell>
        <mxCell id="8jH9FmRQBXBpsS2VpEno-5" style="edgeStyle=orthogonalEdgeStyle;rounded=0;orthogonalLoop=1;jettySize=auto;html=1;exitX=0;exitY=0.5;exitDx=0;exitDy=0;entryX=1;entryY=0.5;entryDx=0;entryDy=0;endArrow=none;endFill=0;" edge="1" parent="4Zz9K3KWUpmg_ewer66d-1" source="8jH9FmRQBXBpsS2VpEno-6" target="8jH9FmRQBXBpsS2VpEno-3">
          <mxGeometry relative="1" as="geometry" />
        </mxCell>
        <mxCell id="8jH9FmRQBXBpsS2VpEno-6" value="Dapat" style="rhombus;whiteSpace=wrap;html=1;" vertex="1" parent="4Zz9K3KWUpmg_ewer66d-1">
          <mxGeometry x="320" y="350" width="80" height="80" as="geometry" />
        </mxCell>
        <mxCell id="8jH9FmRQBXBpsS2VpEno-7" style="edgeStyle=orthogonalEdgeStyle;rounded=0;orthogonalLoop=1;jettySize=auto;html=1;exitX=1;exitY=0.5;exitDx=0;exitDy=0;entryX=0;entryY=0.5;entryDx=0;entryDy=0;endArrow=none;endFill=0;" edge="1" parent="4Zz9K3KWUpmg_ewer66d-1" source="8jH9FmRQBXBpsS2VpEno-8" target="8jH9FmRQBXBpsS2VpEno-4">
          <mxGeometry relative="1" as="geometry" />
        </mxCell>
        <mxCell id="8jH9FmRQBXBpsS2VpEno-8" value="Dapat" style="rhombus;whiteSpace=wrap;html=1;" vertex="1" parent="4Zz9K3KWUpmg_ewer66d-1">
          <mxGeometry x="650" y="350" width="80" height="80" as="geometry" />
        </mxCell>
        <mxCell id="8jH9FmRQBXBpsS2VpEno-9" style="edgeStyle=orthogonalEdgeStyle;rounded=0;orthogonalLoop=1;jettySize=auto;html=1;exitX=0;exitY=0.5;exitDx=0;exitDy=0;entryX=1;entryY=0.5;entryDx=0;entryDy=0;endArrow=none;endFill=0;" edge="1" parent="4Zz9K3KWUpmg_ewer66d-1" source="8jH9FmRQBXBpsS2VpEno-11" target="8jH9FmRQBXBpsS2VpEno-12">
          <mxGeometry relative="1" as="geometry" />
        </mxCell>
        <mxCell id="8jH9FmRQBXBpsS2VpEno-10" style="edgeStyle=none;rounded=0;orthogonalLoop=1;jettySize=auto;html=1;exitX=1;exitY=0.5;exitDx=0;exitDy=0;endArrow=none;endFill=0;strokeColor=#000000;" edge="1" parent="4Zz9K3KWUpmg_ewer66d-1" source="8jH9FmRQBXBpsS2VpEno-11">
          <mxGeometry relative="1" as="geometry">
            <mxPoint x="470" y="390" as="targetPoint" />
          </mxGeometry>
        </mxCell>
        <mxCell id="8jH9FmRQBXBpsS2VpEno-11" value="Dapat" style="rhombus;whiteSpace=wrap;html=1;" vertex="1" parent="4Zz9K3KWUpmg_ewer66d-1">
          <mxGeometry x="320" y="500" width="80" height="80" as="geometry" />
        </mxCell>
        <mxCell id="8jH9FmRQBXBpsS2VpEno-12" value="Cuti" style="rounded=0;whiteSpace=wrap;html=1;" vertex="1" parent="4Zz9K3KWUpmg_ewer66d-1">
          <mxGeometry x="150" y="510" width="120" height="60" as="geometry" />
        </mxCell>
        <mxCell id="8jH9FmRQBXBpsS2VpEno-13" style="edgeStyle=orthogonalEdgeStyle;rounded=0;orthogonalLoop=1;jettySize=auto;html=1;exitX=1;exitY=0.5;exitDx=0;exitDy=0;entryX=0;entryY=0.5;entryDx=0;entryDy=0;endArrow=none;endFill=0;" edge="1" parent="4Zz9K3KWUpmg_ewer66d-1" source="8jH9FmRQBXBpsS2VpEno-15" target="8jH9FmRQBXBpsS2VpEno-16">
          <mxGeometry relative="1" as="geometry" />
        </mxCell>
        <mxCell id="8jH9FmRQBXBpsS2VpEno-14" style="edgeStyle=none;rounded=0;orthogonalLoop=1;jettySize=auto;html=1;exitX=0;exitY=0.5;exitDx=0;exitDy=0;entryX=1;entryY=0.5;entryDx=0;entryDy=0;endArrow=none;endFill=0;strokeColor=#000000;" edge="1" parent="4Zz9K3KWUpmg_ewer66d-1" source="8jH9FmRQBXBpsS2VpEno-15" target="8jH9FmRQBXBpsS2VpEno-2">
          <mxGeometry relative="1" as="geometry" />
        </mxCell>
        <mxCell id="8jH9FmRQBXBpsS2VpEno-15" value="Dapat" style="rhombus;whiteSpace=wrap;html=1;" vertex="1" parent="4Zz9K3KWUpmg_ewer66d-1">
          <mxGeometry x="650" y="500" width="80" height="80" as="geometry" />
        </mxCell>
        <mxCell id="8jH9FmRQBXBpsS2VpEno-16" value="Ijin Sakit" style="rounded=0;whiteSpace=wrap;html=1;" vertex="1" parent="4Zz9K3KWUpmg_ewer66d-1">
          <mxGeometry x="790" y="510" width="120" height="60" as="geometry" />
        </mxCell>
        <mxCell id="8jH9FmRQBXBpsS2VpEno-17" style="rounded=0;orthogonalLoop=1;jettySize=auto;html=1;exitX=1;exitY=0.5;exitDx=0;exitDy=0;entryX=0.5;entryY=0;entryDx=0;entryDy=0;endArrow=none;endFill=0;" edge="1" parent="4Zz9K3KWUpmg_ewer66d-1" source="8jH9FmRQBXBpsS2VpEno-18" target="8jH9FmRQBXBpsS2VpEno-2">
          <mxGeometry relative="1" as="geometry" />
        </mxCell>
        <mxCell id="8jH9FmRQBXBpsS2VpEno-18" value="Mempunyai" style="rhombus;whiteSpace=wrap;html=1;" vertex="1" parent="4Zz9K3KWUpmg_ewer66d-1">
          <mxGeometry x="310" y="200" width="80" height="80" as="geometry" />
        </mxCell>
        <mxCell id="8jH9FmRQBXBpsS2VpEno-19" style="rounded=0;orthogonalLoop=1;jettySize=auto;html=1;exitX=0;exitY=0.5;exitDx=0;exitDy=0;entryX=0.5;entryY=0;entryDx=0;entryDy=0;endArrow=none;endFill=0;" edge="1" parent="4Zz9K3KWUpmg_ewer66d-1" source="8jH9FmRQBXBpsS2VpEno-20" target="8jH9FmRQBXBpsS2VpEno-2">
          <mxGeometry relative="1" as="geometry" />
        </mxCell>
        <mxCell id="8jH9FmRQBXBpsS2VpEno-20" value="Mempunyai" style="rhombus;whiteSpace=wrap;html=1;" vertex="1" parent="4Zz9K3KWUpmg_ewer66d-1">
          <mxGeometry x="650" y="200" width="80" height="80" as="geometry" />
        </mxCell>
        <mxCell id="8jH9FmRQBXBpsS2VpEno-21" style="edgeStyle=orthogonalEdgeStyle;rounded=0;orthogonalLoop=1;jettySize=auto;html=1;exitX=0;exitY=0.5;exitDx=0;exitDy=0;entryX=1;entryY=0.5;entryDx=0;entryDy=0;endArrow=none;endFill=0;" edge="1" parent="4Zz9K3KWUpmg_ewer66d-1" source="8jH9FmRQBXBpsS2VpEno-22" target="8jH9FmRQBXBpsS2VpEno-20">
          <mxGeometry relative="1" as="geometry" />
        </mxCell>
        <mxCell id="8jH9FmRQBXBpsS2VpEno-61" value="" style="edgeStyle=none;rounded=0;orthogonalLoop=1;jettySize=auto;html=1;endArrow=none;endFill=0;strokeColor=#000000;" edge="1" parent="4Zz9K3KWUpmg_ewer66d-1" source="8jH9FmRQBXBpsS2VpEno-22" target="8jH9FmRQBXBpsS2VpEno-20">
          <mxGeometry relative="1" as="geometry" />
        </mxCell>
        <mxCell id="8jH9FmRQBXBpsS2VpEno-22" value="Client" style="rounded=0;whiteSpace=wrap;html=1;" vertex="1" parent="4Zz9K3KWUpmg_ewer66d-1">
          <mxGeometry x="790" y="210" width="120" height="60" as="geometry" />
        </mxCell>
        <mxCell id="8jH9FmRQBXBpsS2VpEno-23" style="edgeStyle=orthogonalEdgeStyle;rounded=0;orthogonalLoop=1;jettySize=auto;html=1;exitX=1;exitY=0.5;exitDx=0;exitDy=0;entryX=0;entryY=0.5;entryDx=0;entryDy=0;endArrow=none;endFill=0;" edge="1" parent="4Zz9K3KWUpmg_ewer66d-1" source="8jH9FmRQBXBpsS2VpEno-24" target="8jH9FmRQBXBpsS2VpEno-18">
          <mxGeometry relative="1" as="geometry" />
        </mxCell>
        <mxCell id="8jH9FmRQBXBpsS2VpEno-24" value="Position" style="rounded=0;whiteSpace=wrap;html=1;" vertex="1" parent="4Zz9K3KWUpmg_ewer66d-1">
          <mxGeometry x="150" y="210" width="120" height="60" as="geometry" />
        </mxCell>
        <mxCell id="8jH9FmRQBXBpsS2VpEno-26" value="id" style="text;html=1;strokeColor=none;fillColor=none;align=left;verticalAlign=middle;whiteSpace=wrap;rounded=0;" vertex="1" parent="4Zz9K3KWUpmg_ewer66d-1">
          <mxGeometry x="279" y="247" width="40" height="19" as="geometry" />
        </mxCell>
        <mxCell id="8jH9FmRQBXBpsS2VpEno-27" value="id" style="text;html=1;strokeColor=none;fillColor=none;align=left;verticalAlign=middle;whiteSpace=wrap;rounded=0;" vertex="1" parent="4Zz9K3KWUpmg_ewer66d-1">
          <mxGeometry x="920" y="241" width="40" height="19" as="geometry" />
        </mxCell>
        <mxCell id="8jH9FmRQBXBpsS2VpEno-28" value="nik&lt;br&gt;date" style="text;html=1;strokeColor=none;fillColor=none;align=left;verticalAlign=middle;whiteSpace=wrap;rounded=0;" vertex="1" parent="4Zz9K3KWUpmg_ewer66d-1">
          <mxGeometry x="270" y="392" width="60" height="38" as="geometry" />
        </mxCell>
        <mxCell id="8jH9FmRQBXBpsS2VpEno-29" value="id&lt;br&gt;nik&lt;br&gt;date" style="text;html=1;strokeColor=none;fillColor=none;align=left;verticalAlign=middle;whiteSpace=wrap;rounded=0;" vertex="1" parent="4Zz9K3KWUpmg_ewer66d-1">
          <mxGeometry x="920" y="380" width="90" height="50" as="geometry" />
        </mxCell>
        <mxCell id="8jH9FmRQBXBpsS2VpEno-30" value="id&lt;br&gt;nik&lt;br&gt;date" style="text;html=1;strokeColor=none;fillColor=none;align=left;verticalAlign=middle;whiteSpace=wrap;rounded=0;" vertex="1" parent="4Zz9K3KWUpmg_ewer66d-1">
          <mxGeometry x="275" y="550" width="40" height="50" as="geometry" />
        </mxCell>
        <mxCell id="8jH9FmRQBXBpsS2VpEno-31" value="id&lt;br&gt;nik&lt;br&gt;date" style="text;html=1;strokeColor=none;fillColor=none;align=left;verticalAlign=middle;whiteSpace=wrap;rounded=0;" vertex="1" parent="4Zz9K3KWUpmg_ewer66d-1">
          <mxGeometry x="920" y="540" width="60" height="50" as="geometry" />
        </mxCell>
        <mxCell id="8jH9FmRQBXBpsS2VpEno-32" style="edgeStyle=none;rounded=0;orthogonalLoop=1;jettySize=auto;html=1;exitX=0.5;exitY=1;exitDx=0;exitDy=0;endArrow=none;endFill=0;strokeColor=#000000;" edge="1" parent="4Zz9K3KWUpmg_ewer66d-1" source="8jH9FmRQBXBpsS2VpEno-34">
          <mxGeometry relative="1" as="geometry">
            <mxPoint x="530" y="360" as="targetPoint" />
          </mxGeometry>
        </mxCell>
        <mxCell id="8jH9FmRQBXBpsS2VpEno-33" style="edgeStyle=none;rounded=0;orthogonalLoop=1;jettySize=auto;html=1;exitX=0.5;exitY=0;exitDx=0;exitDy=0;entryX=0.5;entryY=1;entryDx=0;entryDy=0;endArrow=none;endFill=0;strokeColor=#000000;" edge="1" parent="4Zz9K3KWUpmg_ewer66d-1" source="8jH9FmRQBXBpsS2VpEno-34" target="8jH9FmRQBXBpsS2VpEno-35">
          <mxGeometry relative="1" as="geometry" />
        </mxCell>
        <mxCell id="8jH9FmRQBXBpsS2VpEno-34" value="Mempunyai" style="rhombus;whiteSpace=wrap;html=1;" vertex="1" parent="4Zz9K3KWUpmg_ewer66d-1">
          <mxGeometry x="490" y="170" width="80" height="80" as="geometry" />
        </mxCell>
        <mxCell id="8jH9FmRQBXBpsS2VpEno-35" value="Employe Status" style="rounded=0;whiteSpace=wrap;html=1;" vertex="1" parent="4Zz9K3KWUpmg_ewer66d-1">
          <mxGeometry x="470" y="50" width="120" height="60" as="geometry" />
        </mxCell>
        <mxCell id="8jH9FmRQBXBpsS2VpEno-36" value="nik" style="text;html=1;strokeColor=none;fillColor=none;align=left;verticalAlign=middle;whiteSpace=wrap;rounded=0;" vertex="1" parent="4Zz9K3KWUpmg_ewer66d-1">
          <mxGeometry x="600" y="60" width="40" height="20" as="geometry" />
        </mxCell>
        <mxCell id="8jH9FmRQBXBpsS2VpEno-44" value="1" style="text;html=1;strokeColor=none;fillColor=none;align=center;verticalAlign=middle;whiteSpace=wrap;rounded=0;" vertex="1" parent="4Zz9K3KWUpmg_ewer66d-1">
          <mxGeometry x="600" y="400" width="20" height="20" as="geometry" />
        </mxCell>
        <mxCell id="8jH9FmRQBXBpsS2VpEno-51" value="nik&lt;br&gt;id_client&lt;br&gt;position" style="text;html=1;strokeColor=none;fillColor=none;align=left;verticalAlign=middle;whiteSpace=wrap;rounded=0;" vertex="1" parent="4Zz9K3KWUpmg_ewer66d-1">
          <mxGeometry x="520" y="425" width="40" height="50" as="geometry" />
        </mxCell>
      </root>
    </mxGraphModel>
  </diagram>
  <diagram id="92srxXYck0k7vJ0OEbmi" name="LRS-data">
    <mxGraphModel dx="1422" dy="801" grid="1" gridSize="10" guides="1" tooltips="1" connect="1" arrows="1" fold="1" page="1" pageScale="1" pageWidth="1100" pageHeight="850" math="0" shadow="0">
      <root>
        <mxCell id="RiPLaRlN4FvDHJC0TWyW-0" />
        <mxCell id="RiPLaRlN4FvDHJC0TWyW-1" parent="RiPLaRlN4FvDHJC0TWyW-0" />
        <mxCell id="RiPLaRlN4FvDHJC0TWyW-14" value="employee" style="shape=table;startSize=30;container=1;collapsible=1;childLayout=tableLayout;fixedRows=1;rowLines=0;fontStyle=1;align=center;resizeLast=1;sketch=0;strokeColor=#000000;strokeWidth=1;fillColor=none;" vertex="1" parent="RiPLaRlN4FvDHJC0TWyW-1">
          <mxGeometry x="730" y="200" width="180" height="160" as="geometry" />
        </mxCell>
        <mxCell id="RiPLaRlN4FvDHJC0TWyW-15" value="" style="shape=partialRectangle;collapsible=0;dropTarget=0;pointerEvents=0;fillColor=none;top=0;left=0;bottom=1;right=0;points=[[0,0.5],[1,0.5]];portConstraint=eastwest;" vertex="1" parent="RiPLaRlN4FvDHJC0TWyW-14">
          <mxGeometry y="30" width="180" height="30" as="geometry" />
        </mxCell>
        <mxCell id="RiPLaRlN4FvDHJC0TWyW-16" value="PK" style="shape=partialRectangle;connectable=0;fillColor=none;top=0;left=0;bottom=0;right=0;fontStyle=1;overflow=hidden;" vertex="1" parent="RiPLaRlN4FvDHJC0TWyW-15">
          <mxGeometry width="30" height="30" as="geometry" />
        </mxCell>
        <mxCell id="RiPLaRlN4FvDHJC0TWyW-17" value="UniqueID" style="shape=partialRectangle;connectable=0;fillColor=none;top=0;left=0;bottom=0;right=0;align=left;spacingLeft=6;fontStyle=5;overflow=hidden;" vertex="1" parent="RiPLaRlN4FvDHJC0TWyW-15">
          <mxGeometry x="30" width="150" height="30" as="geometry" />
        </mxCell>
        <mxCell id="RiPLaRlN4FvDHJC0TWyW-18" value="" style="shape=partialRectangle;collapsible=0;dropTarget=0;pointerEvents=0;fillColor=none;top=0;left=0;bottom=0;right=0;points=[[0,0.5],[1,0.5]];portConstraint=eastwest;" vertex="1" parent="RiPLaRlN4FvDHJC0TWyW-14">
          <mxGeometry y="60" width="180" height="30" as="geometry" />
        </mxCell>
        <mxCell id="RiPLaRlN4FvDHJC0TWyW-19" value="" style="shape=partialRectangle;connectable=0;fillColor=none;top=0;left=0;bottom=0;right=0;editable=1;overflow=hidden;" vertex="1" parent="RiPLaRlN4FvDHJC0TWyW-18">
          <mxGeometry width="30" height="30" as="geometry" />
        </mxCell>
        <mxCell id="RiPLaRlN4FvDHJC0TWyW-20" value="Row 1" style="shape=partialRectangle;connectable=0;fillColor=none;top=0;left=0;bottom=0;right=0;align=left;spacingLeft=6;overflow=hidden;" vertex="1" parent="RiPLaRlN4FvDHJC0TWyW-18">
          <mxGeometry x="30" width="150" height="30" as="geometry" />
        </mxCell>
        <mxCell id="RiPLaRlN4FvDHJC0TWyW-21" value="" style="shape=partialRectangle;collapsible=0;dropTarget=0;pointerEvents=0;fillColor=none;top=0;left=0;bottom=0;right=0;points=[[0,0.5],[1,0.5]];portConstraint=eastwest;" vertex="1" parent="RiPLaRlN4FvDHJC0TWyW-14">
          <mxGeometry y="90" width="180" height="30" as="geometry" />
        </mxCell>
        <mxCell id="RiPLaRlN4FvDHJC0TWyW-22" value="" style="shape=partialRectangle;connectable=0;fillColor=none;top=0;left=0;bottom=0;right=0;editable=1;overflow=hidden;" vertex="1" parent="RiPLaRlN4FvDHJC0TWyW-21">
          <mxGeometry width="30" height="30" as="geometry" />
        </mxCell>
        <mxCell id="RiPLaRlN4FvDHJC0TWyW-23" value="Row 2" style="shape=partialRectangle;connectable=0;fillColor=none;top=0;left=0;bottom=0;right=0;align=left;spacingLeft=6;overflow=hidden;" vertex="1" parent="RiPLaRlN4FvDHJC0TWyW-21">
          <mxGeometry x="30" width="150" height="30" as="geometry" />
        </mxCell>
        <mxCell id="RiPLaRlN4FvDHJC0TWyW-24" value="" style="shape=partialRectangle;collapsible=0;dropTarget=0;pointerEvents=0;fillColor=none;top=0;left=0;bottom=0;right=0;points=[[0,0.5],[1,0.5]];portConstraint=eastwest;" vertex="1" parent="RiPLaRlN4FvDHJC0TWyW-14">
          <mxGeometry y="120" width="180" height="30" as="geometry" />
        </mxCell>
        <mxCell id="RiPLaRlN4FvDHJC0TWyW-25" value="" style="shape=partialRectangle;connectable=0;fillColor=none;top=0;left=0;bottom=0;right=0;editable=1;overflow=hidden;" vertex="1" parent="RiPLaRlN4FvDHJC0TWyW-24">
          <mxGeometry width="30" height="30" as="geometry" />
        </mxCell>
        <mxCell id="RiPLaRlN4FvDHJC0TWyW-26" value="Row 3" style="shape=partialRectangle;connectable=0;fillColor=none;top=0;left=0;bottom=0;right=0;align=left;spacingLeft=6;overflow=hidden;" vertex="1" parent="RiPLaRlN4FvDHJC0TWyW-24">
          <mxGeometry x="30" width="150" height="30" as="geometry" />
        </mxCell>
        <mxCell id="RiPLaRlN4FvDHJC0TWyW-66" value="Employee" style="shape=table;startSize=30;container=1;collapsible=1;childLayout=tableLayout;fixedRows=1;rowLines=0;fontStyle=1;align=center;resizeLast=1;sketch=0;strokeColor=#000000;strokeWidth=1;fillColor=none;" vertex="1" parent="RiPLaRlN4FvDHJC0TWyW-1">
          <mxGeometry x="460" y="240" width="180" height="180" as="geometry" />
        </mxCell>
        <mxCell id="RiPLaRlN4FvDHJC0TWyW-67" value="" style="shape=partialRectangle;collapsible=0;dropTarget=0;pointerEvents=0;fillColor=none;top=0;left=0;bottom=0;right=0;points=[[0,0.5],[1,0.5]];portConstraint=eastwest;" vertex="1" parent="RiPLaRlN4FvDHJC0TWyW-66">
          <mxGeometry y="30" width="180" height="30" as="geometry" />
        </mxCell>
        <mxCell id="RiPLaRlN4FvDHJC0TWyW-68" value="PK,FK1" style="shape=partialRectangle;connectable=0;fillColor=none;top=0;left=0;bottom=0;right=0;fontStyle=1;overflow=hidden;" vertex="1" parent="RiPLaRlN4FvDHJC0TWyW-67">
          <mxGeometry width="60" height="30" as="geometry" />
        </mxCell>
        <mxCell id="RiPLaRlN4FvDHJC0TWyW-69" value="nik" style="shape=partialRectangle;connectable=0;fillColor=none;top=0;left=0;bottom=0;right=0;align=left;spacingLeft=6;fontStyle=5;overflow=hidden;" vertex="1" parent="RiPLaRlN4FvDHJC0TWyW-67">
          <mxGeometry x="60" width="120" height="30" as="geometry" />
        </mxCell>
        <mxCell id="RiPLaRlN4FvDHJC0TWyW-70" value="" style="shape=partialRectangle;collapsible=0;dropTarget=0;pointerEvents=0;fillColor=none;top=0;left=0;bottom=1;right=0;points=[[0,0.5],[1,0.5]];portConstraint=eastwest;" vertex="1" parent="RiPLaRlN4FvDHJC0TWyW-66">
          <mxGeometry y="60" width="180" height="50" as="geometry" />
        </mxCell>
        <mxCell id="RiPLaRlN4FvDHJC0TWyW-71" value="PK,FK2" style="shape=partialRectangle;connectable=0;fillColor=none;top=0;left=0;bottom=0;right=0;fontStyle=1;overflow=hidden;" vertex="1" parent="RiPLaRlN4FvDHJC0TWyW-70">
          <mxGeometry width="60" height="50" as="geometry" />
        </mxCell>
        <mxCell id="RiPLaRlN4FvDHJC0TWyW-72" value="Row 2" style="shape=partialRectangle;connectable=0;fillColor=none;top=0;left=0;bottom=0;right=0;align=left;spacingLeft=6;fontStyle=5;overflow=hidden;" vertex="1" parent="RiPLaRlN4FvDHJC0TWyW-70">
          <mxGeometry x="60" width="120" height="50" as="geometry" />
        </mxCell>
        <mxCell id="RiPLaRlN4FvDHJC0TWyW-73" value="" style="shape=partialRectangle;collapsible=0;dropTarget=0;pointerEvents=0;fillColor=none;top=0;left=0;bottom=0;right=0;points=[[0,0.5],[1,0.5]];portConstraint=eastwest;" vertex="1" parent="RiPLaRlN4FvDHJC0TWyW-66">
          <mxGeometry y="110" width="180" height="30" as="geometry" />
        </mxCell>
        <mxCell id="RiPLaRlN4FvDHJC0TWyW-74" value="" style="shape=partialRectangle;connectable=0;fillColor=none;top=0;left=0;bottom=0;right=0;editable=1;overflow=hidden;" vertex="1" parent="RiPLaRlN4FvDHJC0TWyW-73">
          <mxGeometry width="60" height="30" as="geometry" />
        </mxCell>
        <mxCell id="RiPLaRlN4FvDHJC0TWyW-75" value="Row 3" style="shape=partialRectangle;connectable=0;fillColor=none;top=0;left=0;bottom=0;right=0;align=left;spacingLeft=6;overflow=hidden;" vertex="1" parent="RiPLaRlN4FvDHJC0TWyW-73">
          <mxGeometry x="60" width="120" height="30" as="geometry" />
        </mxCell>
        <mxCell id="RiPLaRlN4FvDHJC0TWyW-76" value="" style="shape=partialRectangle;collapsible=0;dropTarget=0;pointerEvents=0;fillColor=none;top=0;left=0;bottom=0;right=0;points=[[0,0.5],[1,0.5]];portConstraint=eastwest;" vertex="1" parent="RiPLaRlN4FvDHJC0TWyW-66">
          <mxGeometry y="140" width="180" height="30" as="geometry" />
        </mxCell>
        <mxCell id="RiPLaRlN4FvDHJC0TWyW-77" value="" style="shape=partialRectangle;connectable=0;fillColor=none;top=0;left=0;bottom=0;right=0;editable=1;overflow=hidden;" vertex="1" parent="RiPLaRlN4FvDHJC0TWyW-76">
          <mxGeometry width="60" height="30" as="geometry" />
        </mxCell>
        <mxCell id="RiPLaRlN4FvDHJC0TWyW-78" value="Row 4" style="shape=partialRectangle;connectable=0;fillColor=none;top=0;left=0;bottom=0;right=0;align=left;spacingLeft=6;overflow=hidden;" vertex="1" parent="RiPLaRlN4FvDHJC0TWyW-76">
          <mxGeometry x="60" width="120" height="30" as="geometry" />
        </mxCell>
        <mxCell id="-3KJUSTh2CrJ1Kbd5sOh-0" value="Row 2" style="shape=partialRectangle;connectable=0;fillColor=none;top=0;left=0;bottom=0;right=0;align=left;spacingLeft=6;fontStyle=5;overflow=hidden;" vertex="1" parent="RiPLaRlN4FvDHJC0TWyW-1">
          <mxGeometry x="520" y="299" width="120" height="30" as="geometry" />
        </mxCell>
      </root>
    </mxGraphModel>
  </diagram>
</mxfile>
